# xmcd
#
# Track frame offsets: 
#        150
#        3692
#        12549
#        19045
#        30576
#        60747
#        75212
#        76843
#        92599
#        118778
#        128799
#        143736
#        150441
#        152336
#        158411
#        162102
#        187530
#        190089
#        208548
#        223112
#        232006
#
# Disc length: 3895 seconds
#
# Revision: 0
# Processed by: cddbd v1.5.2PL0 Copyright (c) Steve Scherf et al.
# Submitted via: ExactAudioCopy v0.95b3
#
DISCID=f10f3515
DTITLE=John Lennon  - Songs From Late in The Afternoon (Barrier) - Dis
DTITLE=c 2
DYEAR=1900
DGENRE=
TTITLE0=I Don't Want To Face It
TTITLE1=I Don't Want To Face It
TTITLE2=I Don't Want To Face It
TTITLE3=I Don't Want To Face It
TTITLE4=Living On Borrowed Time
TTITLE5=Living On Borrowed Time
TTITLE6=Living On Borrowed Time
TTITLE7=Living On Borrowed Time
TTITLE8=Living On Borrowed Time
TTITLE9=Studio Discussions
TTITLE10=Living On Borrowed Time
TTITLE11=Living On Borrowed Time
TTITLE12=Living On Borrowed Time
TTITLE13=Living On Borrowed Time
TTITLE14=Studio Discussions
TTITLE15=Living On Borrowed Time
TTITLE16=Studio Discussions
TTITLE17=Living On Borrowed Time
TTITLE18=Living On Borrowed Time
TTITLE19=No One Can See Me Like You Do
TTITLE20=Audio Tape Diary (September 5th, 1979)
EXTD=
EXTT0=
EXTT1=
EXTT2=
EXTT3=
EXTT4=
EXTT5=
EXTT6=
EXTT7=
EXTT8=
EXTT9=
EXTT10=
EXTT11=
EXTT12=
EXTT13=
EXTT14=
EXTT15=
EXTT16=
EXTT17=
EXTT18=
EXTT19=
EXTT20=
PLAYORDER=
